{"accessors" : [{"bufferView" : 0, "byteOffset" : 0, "componentType" : 5123, "count" : 1323, "type" : "SCALAR", "max" : [1094], "min" : [0]}, {"bufferView" : 1, "byteOffset" : 0, "componentType" : 5126, "count" : 1095, "type" : "VEC3", "max" : [0.774124026298523, 0.927361011505127, 1.0911450386047363], "min" : [-0.8528969883918762, -1.2621899843215942, -1.0911450386047363], "name" : "POSITION"}, {"bufferView" : 1, "byteOffset" : 12, "componentType" : 5126, "count" : 1095, "type" : "VEC2", "max" : [0.9924610257148743, -0.007538999896496534], "min" : [0.007538999896496534, -0.9904239773750305], "name" : "TEXCOORD_0"}, {"bufferView" : 1, "byteOffset" : 20, "componentType" : 5126, "count" : 1095, "type" : "VEC3", "max" : [1.0000044107437134, 1.0000044107437134, 1.0000044107437134], "min" : [-1.0000044107437134, -1.0000044107437134, -1.0000044107437134], "name" : "NORMAL"}], "asset" : {"generator" : "Aspose.3D 22.5.1", "version" : "2.0"}, "buffers" : [{"uri" : "data:application/octet-stream;base64,", "byteLength" : 44992}], "bufferViews" : [{"buffer" : 0, "byteOffset" : 0, "byteLength" : 2648, "target" : 34963}, {"buffer" : 0, "byteOffset" : 2652, "byteLength" : 42336, "byteStride" : 32, "target" : 34962}], "meshes" : [{"primitives" : [{"attributes" : {"POSITION" : 1, "TEXCOORD_0" : 2, "NORMAL" : 3}, "indices" : 0, "mode" : 4}], "name" : ""}], "nodes" : [{"mesh" : 0, "name" : "Cube_Cube.003"}], "scene" : 0, "scenes" : [{"nodes" : [0]}]}